<svg width="512" height="512" viewBox="0 0 512 512" fill="none" xmlns="http://www.w3.org/2000/svg" role="img" aria-labelledby="title desc">
  <title id="title">AutoSign Icon</title>
  <desc id="desc">Calendar shield with automatic sign check mark.</desc>
  <defs>
    <linearGradient id="bg" x1="56" y1="56" x2="456" y2="456" gradientUnits="userSpaceOnUse">
      <stop stop-color="#0EA5E9"/>
      <stop offset="1" stop-color="#2563EB"/>
    </linearGradient>
    <linearGradient id="card" x1="126" y1="126" x2="386" y2="386" gradientUnits="userSpaceOnUse">
      <stop stop-color="#FFFFFF"/>
      <stop offset="1" stop-color="#EAF2FF"/>
    </linearGradient>
    <filter id="shadow" x="88" y="96" width="336" height="336" filterUnits="userSpaceOnUse" color-interpolation-filters="sRGB">
      <feFlood flood-opacity="0" result="BackgroundImageFix"/>
      <feColorMatrix in="SourceAlpha" type="matrix" values="0 0 0 0 0 0 0 0 0 0 0 0 0 0 0 0 0 0 127 0" result="hardAlpha"/>
      <feOffset dy="14"/>
      <feGaussianBlur stdDeviation="12"/>
      <feColorMatrix type="matrix" values="0 0 0 0 0.05 0 0 0 0 0.16 0 0 0 0 0.42 0 0 0 0.28 0"/>
      <feBlend mode="normal" in2="BackgroundImageFix" result="effect1_dropShadow_1_1"/>
      <feBlend mode="normal" in="SourceGraphic" in2="effect1_dropShadow_1_1" result="shape"/>
    </filter>
  </defs>

  <rect x="56" y="56" width="400" height="400" rx="96" fill="url(#bg)"/>

  <g filter="url(#shadow)">
    <rect x="116" y="110" width="280" height="292" rx="46" fill="url(#card)"/>
  </g>

  <rect x="116" y="110" width="280" height="82" rx="46" fill="#1D4ED8"/>
  <rect x="154" y="88" width="24" height="50" rx="12" fill="#BFDBFE"/>
  <rect x="334" y="88" width="24" height="50" rx="12" fill="#BFDBFE"/>

  <path d="M170 246H342" stroke="#AFC6FF" stroke-width="14" stroke-linecap="round"/>
  <path d="M170 286H312" stroke="#AFC6FF" stroke-width="14" stroke-linecap="round"/>

  <circle cx="332" cy="318" r="70" fill="#10B981"/>
  <path d="M300 318L323 341L366 297" stroke="#F8FAFC" stroke-width="16" stroke-linecap="round" stroke-linejoin="round"/>

  <path d="M210 320L236 280H218L248 236" stroke="#1D4ED8" stroke-width="12" stroke-linecap="round" stroke-linejoin="round"/>
</svg>
